{
	"patcher" : 	{
		"fileversion" : 1,
		"appversion" : 		{
			"major" : 8,
			"minor" : 6,
			"revision" : 0,
			"architecture" : "x64",
			"modernui" : 1
		}
,
		"classnamespace" : "box",
		"rect" : [ 34.0, 77.0, 1239.0, 956.0 ],
		"bglocked" : 0,
		"openinpresentation" : 0,
		"default_fontsize" : 12.0,
		"default_fontface" : 0,
		"default_fontname" : "Arial",
		"gridonopen" : 1,
		"gridsize" : [ 15.0, 15.0 ],
		"gridsnaponopen" : 1,
		"objectsnaponopen" : 1,
		"statusbarvisible" : 2,
		"toolbarvisible" : 1,
		"lefttoolbarpinned" : 0,
		"toptoolbarpinned" : 0,
		"righttoolbarpinned" : 0,
		"bottomtoolbarpinned" : 0,
		"toolbars_unpinned_last_save" : 0,
		"tallnewobj" : 0,
		"boxanimatetime" : 200,
		"enablehscroll" : 1,
		"enablevscroll" : 1,
		"devicewidth" : 0.0,
		"description" : "",
		"digest" : "",
		"tags" : "",
		"style" : "",
		"subpatcher_template" : "",
		"assistshowspatchername" : 0,
		"boxes" : [ 			{
				"box" : 				{
					"id" : "obj-60",
					"maxclass" : "number",
					"numinlets" : 1,
					"numoutlets" : 2,
					"outlettype" : [ "", "bang" ],
					"parameter_enable" : 0,
					"patching_rect" : [ 456.249995648860931, 466.071424126625061, 50.0, 22.0 ]
				}

			}
, 			{
				"box" : 				{
					"id" : "obj-58",
					"maxclass" : "newobj",
					"numinlets" : 6,
					"numoutlets" : 1,
					"outlettype" : [ "" ],
					"patching_rect" : [ 397.321424782276154, 590.178565800189972, 103.0, 22.0 ],
					"text" : "scale 0 1000 0. 1."
				}

			}
, 			{
				"box" : 				{
					"id" : "obj-57",
					"maxclass" : "newobj",
					"numinlets" : 5,
					"numoutlets" : 4,
					"outlettype" : [ "int", "", "", "int" ],
					"patching_rect" : [ 396.42856764793396, 549.99999475479126, 99.0, 22.0 ],
					"text" : "counter 2 0 1000"
				}

			}
, 			{
				"box" : 				{
					"id" : "obj-56",
					"maxclass" : "newobj",
					"numinlets" : 2,
					"numoutlets" : 1,
					"outlettype" : [ "bang" ],
					"patching_rect" : [ 396.42856764793396, 507.142852306365967, 69.0, 22.0 ],
					"text" : "metro 1000"
				}

			}
, 			{
				"box" : 				{
					"id" : "obj-55",
					"maxclass" : "toggle",
					"numinlets" : 1,
					"numoutlets" : 1,
					"outlettype" : [ "int" ],
					"parameter_enable" : 0,
					"patching_rect" : [ 396.42856764793396, 465.178566992282867, 24.0, 24.0 ]
				}

			}
, 			{
				"box" : 				{
					"annotation" : "## Crossfade between two videos ##",
					"bgmode" : 1,
					"border" : 0,
					"clickthrough" : 0,
					"enablehscroll" : 0,
					"enablevscroll" : 0,
					"id" : "obj-52",
					"lockeddragscroll" : 0,
					"lockedsize" : 0,
					"maxclass" : "bpatcher",
					"name" : "vz.xfadr.maxpat",
					"numinlets" : 3,
					"numoutlets" : 1,
					"offset" : [ 0.0, 0.0 ],
					"outlettype" : [ "jit_gl_texture" ],
					"patching_rect" : [ 426.785710215568542, 302.678568542003632, 118.0, 130.0 ],
					"prototypename" : "pixl",
					"varname" : "xfadr",
					"viewvisibility" : 1
				}

			}
, 			{
				"box" : 				{
					"attr" : "loop",
					"id" : "obj-48",
					"maxclass" : "attrui",
					"numinlets" : 1,
					"numoutlets" : 1,
					"outlettype" : [ "" ],
					"parameter_enable" : 0,
					"patching_rect" : [ 251.785711884498596, 43.749999582767487, 150.0, 22.0 ]
				}

			}
, 			{
				"box" : 				{
					"id" : "obj-45",
					"linecount" : 4,
					"maxclass" : "message",
					"numinlets" : 2,
					"numoutlets" : 1,
					"outlettype" : [ "" ],
					"patching_rect" : [ 89.28571343421936, 282.142854452133179, 50.0, 62.0 ],
					"text" : "jit_gl_texture u217000514"
				}

			}
, 			{
				"box" : 				{
					"annotation" : "## Change a video's brightness/contrast/saturation ##",
					"bgmode" : 1,
					"border" : 0,
					"clickthrough" : 0,
					"enablehscroll" : 0,
					"enablevscroll" : 0,
					"id" : "obj-35",
					"lockeddragscroll" : 0,
					"lockedsize" : 0,
					"maxclass" : "bpatcher",
					"name" : "vz.brcosr.maxpat",
					"numinlets" : 7,
					"numoutlets" : 1,
					"offset" : [ 0.0, 0.0 ],
					"outlettype" : [ "jit_gl_texture" ],
					"patching_rect" : [ 166.964284121990204, 302.678568542003632, 208.0, 130.0 ],
					"prototypename" : "pixl",
					"varname" : "brcosr",
					"viewvisibility" : 1
				}

			}
, 			{
				"box" : 				{
					"attr" : "floating",
					"id" : "obj-43",
					"maxclass" : "attrui",
					"numinlets" : 1,
					"numoutlets" : 1,
					"outlettype" : [ "" ],
					"parameter_enable" : 0,
					"patching_rect" : [ 211.607140839099884, 628.571422576904297, 150.0, 22.0 ]
				}

			}
, 			{
				"box" : 				{
					"annotation" : "## Zoom video effect ##",
					"bgmode" : 1,
					"border" : 0,
					"clickthrough" : 0,
					"enablehscroll" : 0,
					"enablevscroll" : 0,
					"id" : "obj-1",
					"lockeddragscroll" : 0,
					"lockedsize" : 0,
					"maxclass" : "bpatcher",
					"name" : "vz.zoomr.maxpat",
					"numinlets" : 4,
					"numoutlets" : 1,
					"offset" : [ 0.0, 0.0 ],
					"outlettype" : [ "jit_gl_texture" ],
					"patching_rect" : [ 166.964284121990204, 467.857138395309448, 158.0, 130.0 ],
					"prototypename" : "pixl",
					"varname" : "zoomr",
					"viewvisibility" : 1
				}

			}
, 			{
				"box" : 				{
					"id" : "obj-41",
					"maxclass" : "comment",
					"numinlets" : 1,
					"numoutlets" : 0,
					"patching_rect" : [ 335.714282512664795, 76.78571355342865, 150.0, 20.0 ],
					"text" : "use GPU, more efficient"
				}

			}
, 			{
				"box" : 				{
					"attr" : "output_texture",
					"id" : "obj-39",
					"maxclass" : "attrui",
					"numinlets" : 1,
					"numoutlets" : 1,
					"outlettype" : [ "" ],
					"parameter_enable" : 0,
					"patching_rect" : [ 83.035713493824005, 43.749999582767487, 150.0, 22.0 ]
				}

			}
, 			{
				"box" : 				{
					"id" : "obj-36",
					"maxclass" : "toggle",
					"numinlets" : 1,
					"numoutlets" : 1,
					"outlettype" : [ "int" ],
					"parameter_enable" : 0,
					"patching_rect" : [ 106.249998986721039, 565.178566038608551, 24.0, 24.0 ]
				}

			}
, 			{
				"box" : 				{
					"id" : "obj-34",
					"maxclass" : "newobj",
					"numinlets" : 1,
					"numoutlets" : 3,
					"outlettype" : [ "jit_matrix", "bang", "" ],
					"patching_rect" : [ 166.964284121990204, 695.535707652568817, 49.0, 22.0 ],
					"text" : "jit.world"
				}

			}
, 			{
				"box" : 				{
					"clipheight" : 61.925169467926025,
					"data" : 					{
						"clips" : [ 							{
								"absolutepath" : "checkerboard.mp4",
								"filename" : "checkerboard.mp4",
								"filekind" : "moviefile",
								"id" : "u628000572",
								"selection" : [ 0.298013245033113, 0.768211920529801 ],
								"loop" : 1,
								"content_state" : 								{
									"loop" : 1
								}

							}
, 							{
								"absolutepath" : "blading.mov",
								"filename" : "blading.mov",
								"filekind" : "moviefile",
								"id" : "u161000506",
								"selection" : [ 0.341059602649007, 0.400662251655629 ],
								"loop" : 1,
								"content_state" : 								{
									"loop" : 1
								}

							}
 ]
					}
,
					"drawto" : "",
					"id" : "obj-33",
					"loop" : 1,
					"maxclass" : "jit.playlist",
					"numinlets" : 1,
					"numoutlets" : 3,
					"outlettype" : [ "jit_gl_texture", "", "dictionary" ],
					"output_texture" : 1,
					"parameter_enable" : 0,
					"patching_rect" : [ 166.964284121990204, 126.785713076591492, 357.142853736877441, 125.850338935852051 ]
				}

			}
 ],
		"lines" : [ 			{
				"patchline" : 				{
					"destination" : [ "obj-34", 0 ],
					"order" : 0,
					"source" : [ "obj-1", 0 ]
				}

			}
, 			{
				"patchline" : 				{
					"destination" : [ "obj-52", 1 ],
					"order" : 1,
					"source" : [ "obj-1", 0 ]
				}

			}
, 			{
				"patchline" : 				{
					"destination" : [ "obj-45", 1 ],
					"order" : 0,
					"source" : [ "obj-33", 0 ]
				}

			}
, 			{
				"patchline" : 				{
					"destination" : [ "obj-52", 0 ],
					"order" : 1,
					"source" : [ "obj-33", 0 ]
				}

			}
, 			{
				"patchline" : 				{
					"destination" : [ "obj-1", 0 ],
					"source" : [ "obj-35", 0 ]
				}

			}
, 			{
				"patchline" : 				{
					"destination" : [ "obj-34", 0 ],
					"midpoints" : [ 115.749998986721039, 679.46598494052887, 176.464284121990204, 679.46598494052887 ],
					"source" : [ "obj-36", 0 ]
				}

			}
, 			{
				"patchline" : 				{
					"destination" : [ "obj-33", 0 ],
					"source" : [ "obj-39", 0 ]
				}

			}
, 			{
				"patchline" : 				{
					"destination" : [ "obj-34", 0 ],
					"source" : [ "obj-43", 0 ]
				}

			}
, 			{
				"patchline" : 				{
					"destination" : [ "obj-33", 0 ],
					"source" : [ "obj-48", 0 ]
				}

			}
, 			{
				"patchline" : 				{
					"destination" : [ "obj-35", 0 ],
					"source" : [ "obj-52", 0 ]
				}

			}
, 			{
				"patchline" : 				{
					"destination" : [ "obj-56", 0 ],
					"source" : [ "obj-55", 0 ]
				}

			}
, 			{
				"patchline" : 				{
					"destination" : [ "obj-57", 0 ],
					"source" : [ "obj-56", 0 ]
				}

			}
, 			{
				"patchline" : 				{
					"destination" : [ "obj-58", 0 ],
					"source" : [ "obj-57", 0 ]
				}

			}
, 			{
				"patchline" : 				{
					"destination" : [ "obj-1", 1 ],
					"source" : [ "obj-58", 0 ]
				}

			}
, 			{
				"patchline" : 				{
					"destination" : [ "obj-56", 1 ],
					"source" : [ "obj-60", 0 ]
				}

			}
 ],
		"parameters" : 		{
			"obj-1::obj-1" : [ "range[6]", "range", 0 ],
			"obj-1::obj-104" : [ "pictctrl[13]", "pictctrl[1]", 0 ],
			"obj-1::obj-119" : [ "Zoom", "Zoom", 0 ],
			"obj-1::obj-120" : [ "Zoom range", "Zoom range", 1 ],
			"obj-1::obj-121" : [ "zoom[7]", "Zoom", 0 ],
			"obj-1::obj-2" : [ "Mode", "Mode", 0 ],
			"obj-1::obj-51" : [ "pictctrl[12]", "pictctrl[1]", 0 ],
			"obj-1::obj-56::obj-23" : [ "gswitch2[2]", "gswitch2", 0 ],
			"obj-1::obj-66" : [ "pictctrl[11]", "pictctrl[1]", 0 ],
			"obj-35::obj-104" : [ "pictctrl[9]", "pictctrl[1]", 0 ],
			"obj-35::obj-119" : [ "Brightness", "Brightness", 0 ],
			"obj-35::obj-120" : [ "Brightness range", "Brightness range", 1 ],
			"obj-35::obj-121" : [ "Offset[2]", "Brightness", 0 ],
			"obj-35::obj-127" : [ "Contrast", "Contrast", 0 ],
			"obj-35::obj-128" : [ "Contrast range", "Contrast range", 1 ],
			"obj-35::obj-129" : [ "contrast", "Contrast", 0 ],
			"obj-35::obj-140" : [ "Saturation", "Saturation", 0 ],
			"obj-35::obj-141" : [ "Saturation range", "Saturation range", 1 ],
			"obj-35::obj-142" : [ "saturation[1]", "Saturation", 0 ],
			"obj-35::obj-147" : [ "pictctrl[44]", "pictctrl[1]", 0 ],
			"obj-35::obj-148" : [ "pictctrl[43]", "pictctrl[1]", 0 ],
			"obj-35::obj-149" : [ "pictctrl[42]", "pictctrl[1]", 0 ],
			"obj-35::obj-150" : [ "pictctrl[28]", "pictctrl[1]", 0 ],
			"obj-35::obj-151" : [ "pictctrl[27]", "pictctrl[1]", 0 ],
			"obj-35::obj-56::obj-23" : [ "gswitch2[3]", "gswitch2", 0 ],
			"obj-35::obj-6" : [ "range[5]", "range", 0 ],
			"obj-52::obj-17::obj-23" : [ "gswitch2[5]", "gswitch2", 0 ],
			"obj-52::obj-2" : [ "range[4]", "range", 0 ],
			"obj-52::obj-51" : [ "pictctrl[1]", "pictctrl[1]", 0 ],
			"obj-52::obj-56::obj-23" : [ "gswitch2[4]", "gswitch2", 0 ],
			"obj-52::obj-6" : [ "crossfade", "Crossfade", 0 ],
			"parameterbanks" : 			{

			}
,
			"inherited_shortname" : 1
		}
,
		"dependency_cache" : [ 			{
				"name" : "blading.mov",
				"bootpath" : "C74:/media/jitter",
				"type" : "MooV",
				"implicit" : 1
			}
, 			{
				"name" : "brcosa.genjit",
				"bootpath" : "~/AppData/Roaming/Cycling '74/Max 8/examples/jitter-examples/gen",
				"patcherrelativepath" : "../../../AppData/Roaming/Cycling '74/Max 8/examples/jitter-examples/gen",
				"type" : "gJIT",
				"implicit" : 1
			}
, 			{
				"name" : "checkerboard.mp4",
				"bootpath" : "~/OneDrive/Documents/Max 8/Packages/cv.jit/media",
				"patcherrelativepath" : "../../../OneDrive/Documents/Max 8/Packages/cv.jit/media",
				"type" : "mpg4",
				"implicit" : 1
			}
, 			{
				"name" : "data-handler.maxpat",
				"bootpath" : "C74:/packages/vizzie/patchers/utils",
				"type" : "JSON",
				"implicit" : 1
			}
, 			{
				"name" : "exact_menu.maxpat",
				"bootpath" : "C74:/packages/vizzie/patchers/utils",
				"type" : "JSON",
				"implicit" : 1
			}
, 			{
				"name" : "lo_hi_UI_control.maxpat",
				"bootpath" : "C74:/packages/vizzie/patchers/utils",
				"type" : "JSON",
				"implicit" : 1
			}
, 			{
				"name" : "video-handler.maxpat",
				"bootpath" : "C74:/packages/vizzie/patchers/utils",
				"type" : "JSON",
				"implicit" : 1
			}
, 			{
				"name" : "vizzie-datatexconvert.js",
				"bootpath" : "C74:/packages/vizzie/code",
				"type" : "TEXT",
				"implicit" : 1
			}
, 			{
				"name" : "vizzie-global.js",
				"bootpath" : "C74:/packages/vizzie/code",
				"type" : "TEXT",
				"implicit" : 1
			}
, 			{
				"name" : "vz.brcosr.maxpat",
				"bootpath" : "C74:/packages/vizzie/patchers",
				"type" : "JSON",
				"implicit" : 1
			}
, 			{
				"name" : "vz.xfadr.maxpat",
				"bootpath" : "C74:/packages/vizzie/patchers",
				"type" : "JSON",
				"implicit" : 1
			}
, 			{
				"name" : "vz.zoomr.maxpat",
				"bootpath" : "C74:/packages/vizzie/patchers",
				"type" : "JSON",
				"implicit" : 1
			}
, 			{
				"name" : "vzgl-object.maxpat",
				"bootpath" : "C74:/packages/vizzie/patchers/utils",
				"type" : "JSON",
				"implicit" : 1
			}
, 			{
				"name" : "vzgl-outputdim.maxpat",
				"bootpath" : "C74:/packages/vizzie/patchers/utils",
				"type" : "JSON",
				"implicit" : 1
			}
, 			{
				"name" : "xfade.genjit",
				"bootpath" : "~/AppData/Roaming/Cycling '74/Max 8/examples/jitter-examples/gen",
				"patcherrelativepath" : "../../../AppData/Roaming/Cycling '74/Max 8/examples/jitter-examples/gen",
				"type" : "gJIT",
				"implicit" : 1
			}
 ],
		"autosave" : 0
	}

}
